<svg xmlns="http://www.w3.org/2000/svg" viewBox="0 0 264 152" role="img" aria-hidden="true"><rect x="22" y="58" width="28" height="36" rx="4" fill="none" fill-opacity="0" stroke="currentColor" stroke-width="2.2" opacity="0.55"/><text x="31" y="82" fill="currentColor" font-family="ui-monospace, Menlo, monospace" font-size="15" >0</text><rect x="54" y="58" width="28" height="36" rx="4" fill="none" fill-opacity="0" stroke="currentColor" stroke-width="2.2" opacity="0.55"/><text x="63" y="82" fill="currentColor" font-family="ui-monospace, Menlo, monospace" font-size="15" >1</text><rect x="86" y="58" width="28" height="36" rx="4" fill="none" fill-opacity="0" stroke="currentColor" stroke-width="2.2" opacity="0.55"/><text x="95" y="82" fill="currentColor" font-family="ui-monospace, Menlo, monospace" font-size="15" >1</text><rect x="118" y="58" width="28" height="36" rx="4" fill="#3fb95a" fill-opacity="0.15" stroke="#3fb95a" stroke-width="2.2" opacity="1"/><text x="127" y="82" fill="#3fb95a" font-family="ui-monospace, Menlo, monospace" font-size="15" >0</text><rect x="150" y="58" width="28" height="36" rx="4" fill="none" fill-opacity="0" stroke="currentColor" stroke-width="2.2" opacity="0.55"/><text x="159" y="82" fill="currentColor" font-family="ui-monospace, Menlo, monospace" font-size="15" >1</text><rect x="182" y="58" width="28" height="36" rx="4" fill="none" fill-opacity="0" stroke="currentColor" stroke-width="2.2" opacity="0.55"/><text x="191" y="82" fill="currentColor" font-family="ui-monospace, Menlo, monospace" font-size="15" >1</text><rect x="214" y="58" width="28" height="36" rx="4" fill="none" fill-opacity="0" stroke="currentColor" stroke-width="2.2" opacity="0.55"/><text x="223" y="82" fill="currentColor" font-family="ui-monospace, Menlo, monospace" font-size="15" >0</text><polyline points="124,40 136,52 148,40" fill="none" stroke="#3fb95a" stroke-width="2.6" stroke-linecap="round" stroke-linejoin="round"/><line x1="96" y1="122" x2="132" y2="122" stroke="currentColor" stroke-width="2.2" stroke-linecap="round"/><polyline points="123.78219953718923,125.66984407753613 132,122 123.78219953718923,118.33015592246387" fill="none" stroke="currentColor" stroke-width="2.2" stroke-linecap="round" stroke-linejoin="round"/><text x="142" y="126" fill="currentColor" font-family="ui-monospace, Menlo, monospace" font-size="11" >read, write, move</text></svg>