<svg xmlns="http://www.w3.org/2000/svg" viewBox="0 0 264 152" role="img" aria-hidden="true"><rect x="22" y="56" width="52" height="40" rx="4" fill="none" stroke="#1fb0bd" stroke-width="2.4"/><text x="32" y="80" fill="#1fb0bd" font-family="ui-monospace, Menlo, monospace" font-size="13" >TMA</text><line x1="78" y1="76" x2="100" y2="76" stroke="currentColor" stroke-width="2.2" stroke-linecap="round"/><polyline points="91.78219953718923,79.66984407753613 100,76 91.78219953718923,72.33015592246387" fill="none" stroke="currentColor" stroke-width="2.2" stroke-linecap="round" stroke-linejoin="round"/><rect x="104" y="62" width="22" height="28" rx="3" fill="#3fb95a" fill-opacity="0.9" stroke="#3fb95a" stroke-width="2" opacity="1"/><rect x="130" y="62" width="22" height="28" rx="3" fill="#3fb95a" fill-opacity="0.9" stroke="#3fb95a" stroke-width="2" opacity="1"/><rect x="156" y="62" width="22" height="28" rx="3" fill="none" fill-opacity="0" stroke="currentColor" stroke-width="2" opacity="0.45"/><rect x="182" y="62" width="22" height="28" rx="3" fill="none" fill-opacity="0" stroke="currentColor" stroke-width="2" opacity="0.45"/><line x1="212" y1="76" x2="234" y2="76" stroke="currentColor" stroke-width="2.2" stroke-linecap="round"/><polyline points="225.78219953718923,79.66984407753613 234,76 225.78219953718923,72.33015592246387" fill="none" stroke="currentColor" stroke-width="2.2" stroke-linecap="round" stroke-linejoin="round"/><rect x="238" y="52" width="4" height="48" rx="2" fill="#f08c1f"/><text x="104" y="116" fill="currentColor" font-family="ui-monospace, Menlo, monospace" font-size="11" >the queue</text><text x="22" y="36" fill="#1fb0bd" font-family="ui-monospace, Menlo, monospace" font-size="11" >load</text><text x="196" y="36" fill="#f08c1f" font-family="ui-monospace, Menlo, monospace" font-size="11" >multiply</text><text x="22" y="138" fill="currentColor" font-family="ui-monospace, Menlo, monospace" font-size="11" >threads manage, hardware works</text></svg>